<mxfile host="app.diagrams.net" modified="2020-11-21T19:17:24.540Z" agent="5.0 (Windows NT 10.0; Win64; x64) AppleWebKit/537.36 (KHTML, like Gecko) Chrome/86.0.4240.193 Safari/537.36" etag="JKsm7xLD0Ms11_EF1bjr" version="13.9.2" type="github">
  <diagram id="iR4uejkebPnV4npOfW3L" name="Page-1">
    <mxGraphModel dx="2903" dy="1046" grid="1" gridSize="10" guides="1" tooltips="1" connect="1" arrows="1" fold="1" page="1" pageScale="1" pageWidth="827" pageHeight="1169" math="0" shadow="0">
      <root>
        <mxCell id="0" />
        <mxCell id="1" parent="0" />
        <mxCell id="hRsmKu5wAkDzAuVudHje-13" value="" style="edgeStyle=orthogonalEdgeStyle;rounded=0;orthogonalLoop=1;jettySize=auto;html=1;" edge="1" parent="1" source="hRsmKu5wAkDzAuVudHje-1">
          <mxGeometry relative="1" as="geometry">
            <mxPoint x="365" y="328" as="targetPoint" />
          </mxGeometry>
        </mxCell>
        <mxCell id="hRsmKu5wAkDzAuVudHje-1" value="&lt;font&gt;&lt;u&gt;&lt;font style=&quot;font-size: 20px&quot;&gt;Import Data:&lt;/font&gt;&lt;br&gt;&lt;/u&gt;&lt;br&gt;&lt;div style=&quot;text-align: left&quot;&gt;&lt;font style=&quot;font-size: 17px&quot;&gt;Dataset preparation&lt;/font&gt;&lt;/div&gt;&lt;/font&gt;" style="rounded=1;whiteSpace=wrap;html=1;fillColor=#f8cecc;strokeColor=#b85450;align=center;" vertex="1" parent="1">
          <mxGeometry x="280" y="160" width="170" height="120" as="geometry" />
        </mxCell>
        <mxCell id="hRsmKu5wAkDzAuVudHje-18" style="edgeStyle=orthogonalEdgeStyle;rounded=0;orthogonalLoop=1;jettySize=auto;html=1;exitX=1;exitY=0.25;exitDx=0;exitDy=0;entryX=0;entryY=0.25;entryDx=0;entryDy=0;" edge="1" parent="1" source="hRsmKu5wAkDzAuVudHje-2" target="hRsmKu5wAkDzAuVudHje-14">
          <mxGeometry relative="1" as="geometry" />
        </mxCell>
        <mxCell id="hRsmKu5wAkDzAuVudHje-2" value="&lt;font style=&quot;font-size: 20px&quot;&gt;Business Understanding&lt;/font&gt;" style="rounded=1;whiteSpace=wrap;html=1;fillColor=#fff2cc;strokeColor=#d6b656;" vertex="1" parent="1">
          <mxGeometry x="102" y="20" width="178" height="100" as="geometry" />
        </mxCell>
        <mxCell id="hRsmKu5wAkDzAuVudHje-10" style="edgeStyle=orthogonalEdgeStyle;rounded=0;orthogonalLoop=1;jettySize=auto;html=1;exitX=0.5;exitY=1;exitDx=0;exitDy=0;entryX=0.469;entryY=1.005;entryDx=0;entryDy=0;entryPerimeter=0;" edge="1" parent="1" source="hRsmKu5wAkDzAuVudHje-3" target="hRsmKu5wAkDzAuVudHje-5">
          <mxGeometry relative="1" as="geometry">
            <Array as="points">
              <mxPoint x="140" y="1010" />
              <mxPoint x="594" y="1010" />
            </Array>
          </mxGeometry>
        </mxCell>
        <mxCell id="hRsmKu5wAkDzAuVudHje-3" value="&lt;font&gt;&lt;u&gt;&lt;br&gt;&lt;span style=&quot;font-size: 18px&quot;&gt;&lt;b&gt;&lt;br&gt;Data pre-processing:&lt;/b&gt;&lt;/span&gt;&lt;/u&gt;&lt;/font&gt;&lt;br&gt;&lt;br&gt;&lt;div style=&quot;text-align: left ; font-size: 15px&quot;&gt;&lt;b&gt;&lt;font style=&quot;font-size: 15px&quot;&gt;- Null Data&amp;nbsp;&lt;/font&gt;&lt;/b&gt;&lt;/div&gt;&lt;div style=&quot;text-align: left ; font-size: 15px&quot;&gt;&lt;b&gt;&lt;font style=&quot;font-size: 15px&quot;&gt;- Data Clean: outliers...&lt;/font&gt;&lt;/b&gt;&lt;/div&gt;&lt;div style=&quot;text-align: left ; font-size: 15px&quot;&gt;&lt;span&gt;&lt;b&gt;&lt;font style=&quot;font-size: 15px&quot;&gt;- Data reduction: most important&amp;nbsp;&lt;/font&gt;&lt;/b&gt;&lt;/span&gt;&lt;/div&gt;&lt;div style=&quot;text-align: left ; font-size: 15px&quot;&gt;&lt;span&gt;&lt;b&gt;&lt;font style=&quot;font-size: 15px&quot;&gt;&amp;nbsp; &amp;nbsp; &amp;nbsp; &amp;nbsp; &amp;nbsp; &amp;nbsp; &amp;nbsp; &amp;nbsp; &amp;nbsp; &amp;nbsp; &amp;nbsp; &amp;nbsp; &amp;nbsp; &amp;nbsp; &amp;nbsp; features...&lt;/font&gt;&lt;/b&gt;&lt;/span&gt;&lt;/div&gt;&lt;div style=&quot;text-align: left ; font-size: 15px&quot;&gt;&lt;span&gt;&lt;b&gt;&lt;font style=&quot;font-size: 15px&quot;&gt;- Normalization&lt;/font&gt;&lt;/b&gt;&lt;/span&gt;&lt;/div&gt;&lt;div style=&quot;text-align: left ; font-size: 15px&quot;&gt;&lt;span&gt;&lt;b&gt;&lt;font style=&quot;font-size: 15px&quot;&gt;- Balanced&lt;/font&gt;&lt;/b&gt;&lt;/span&gt;&lt;/div&gt;&lt;br&gt;&lt;div style=&quot;text-align: left ; font-size: 15px&quot;&gt;&lt;br&gt;&lt;/div&gt;&lt;div style=&quot;text-align: left&quot;&gt;&lt;span&gt;&lt;b&gt;&lt;br&gt;&lt;/b&gt;&lt;/span&gt;&lt;/div&gt;&lt;div style=&quot;text-align: left&quot;&gt;&lt;span&gt;&lt;br&gt;&lt;/span&gt;&lt;/div&gt;" style="rounded=1;whiteSpace=wrap;html=1;fillColor=#d5e8d4;strokeColor=#82b366;" vertex="1" parent="1">
          <mxGeometry x="-20" y="610" width="320" height="230" as="geometry" />
        </mxCell>
        <mxCell id="hRsmKu5wAkDzAuVudHje-11" style="edgeStyle=orthogonalEdgeStyle;rounded=0;orthogonalLoop=1;jettySize=auto;html=1;exitX=0;exitY=0.5;exitDx=0;exitDy=0;entryX=0.5;entryY=0;entryDx=0;entryDy=0;" edge="1" parent="1" source="hRsmKu5wAkDzAuVudHje-4" target="hRsmKu5wAkDzAuVudHje-3">
          <mxGeometry relative="1" as="geometry">
            <mxPoint x="180" y="444.42857142857156" as="targetPoint" />
          </mxGeometry>
        </mxCell>
        <mxCell id="hRsmKu5wAkDzAuVudHje-4" value="&lt;b&gt;&lt;font style=&quot;font-size: 18px&quot;&gt;&lt;u&gt;&lt;br&gt;Exploratory Data Analysis:&lt;/u&gt;&lt;/font&gt;&lt;br&gt;&lt;br&gt;&lt;/b&gt;&lt;div style=&quot;text-align: left ; font-size: 15px&quot;&gt;&lt;b&gt;&lt;font style=&quot;font-size: 15px&quot;&gt;- Data size&lt;/font&gt;&lt;/b&gt;&lt;/div&gt;&lt;div style=&quot;text-align: left ; font-size: 15px&quot;&gt;&lt;span&gt;&lt;b&gt;&lt;font style=&quot;font-size: 15px&quot;&gt;- Data type&lt;/font&gt;&lt;/b&gt;&lt;/span&gt;&lt;/div&gt;&lt;div style=&quot;text-align: left ; font-size: 15px&quot;&gt;&lt;span&gt;&lt;b&gt;&lt;font style=&quot;font-size: 15px&quot;&gt;- Descriptive statistics&lt;/font&gt;&lt;/b&gt;&lt;/span&gt;&lt;/div&gt;&lt;div style=&quot;text-align: left ; font-size: 15px&quot;&gt;&lt;span&gt;&lt;b&gt;&lt;font style=&quot;font-size: 15px&quot;&gt;- Correlations&lt;/font&gt;&lt;/b&gt;&lt;/span&gt;&lt;/div&gt;&lt;div style=&quot;text-align: left ; font-size: 15px&quot;&gt;&lt;span&gt;&lt;b&gt;&lt;font style=&quot;font-size: 15px&quot;&gt;- Distribution data&lt;/font&gt;&lt;/b&gt;&lt;/span&gt;&lt;/div&gt;&lt;div style=&quot;text-align: left ; font-size: 15px&quot;&gt;&lt;span&gt;&lt;b&gt;&lt;font style=&quot;font-size: 15px&quot;&gt;- Distribution target&lt;/font&gt;&lt;/b&gt;&lt;/span&gt;&lt;/div&gt;&lt;div style=&quot;text-align: left ; font-size: 15px&quot;&gt;&lt;b&gt;&lt;font style=&quot;font-size: 15px&quot;&gt;- Visualization&lt;/font&gt;&lt;/b&gt;&lt;/div&gt;&lt;div style=&quot;text-align: left ; font-size: 15px&quot;&gt;&lt;br&gt;&lt;/div&gt;&lt;div style=&quot;text-align: left&quot;&gt;&lt;span&gt;&lt;b&gt;&lt;br&gt;&lt;/b&gt;&lt;/span&gt;&lt;/div&gt;&lt;div style=&quot;text-align: left&quot;&gt;&lt;span&gt;&lt;br&gt;&lt;/span&gt;&lt;/div&gt;" style="rounded=1;whiteSpace=wrap;html=1;fillColor=#dae8fc;strokeColor=#6c8ebf;" vertex="1" parent="1">
          <mxGeometry x="220" y="330" width="306" height="230" as="geometry" />
        </mxCell>
        <mxCell id="hRsmKu5wAkDzAuVudHje-12" style="edgeStyle=orthogonalEdgeStyle;rounded=0;orthogonalLoop=1;jettySize=auto;html=1;entryX=1;entryY=0.5;entryDx=0;entryDy=0;" edge="1" parent="1" source="hRsmKu5wAkDzAuVudHje-5" target="hRsmKu5wAkDzAuVudHje-4">
          <mxGeometry relative="1" as="geometry" />
        </mxCell>
        <mxCell id="hRsmKu5wAkDzAuVudHje-5" value="&lt;b&gt;&lt;font style=&quot;font-size: 18px&quot;&gt;&lt;u&gt;&lt;br&gt;&lt;br&gt;&lt;br&gt;Machine Learning:&lt;/u&gt;&lt;/font&gt;&lt;br&gt;&lt;br&gt;&lt;/b&gt;&lt;div style=&quot;text-align: left ; font-size: 15px&quot;&gt;&lt;b&gt;&lt;font style=&quot;font-size: 15px&quot;&gt;- Baseline Model:&amp;nbsp;&lt;/font&gt;&lt;/b&gt;&lt;/div&gt;&lt;div style=&quot;text-align: left ; font-size: 15px&quot;&gt;&lt;b&gt;&amp;nbsp; &amp;nbsp; &amp;nbsp; &amp;nbsp;.Train model.&lt;/b&gt;&lt;/div&gt;&lt;div style=&quot;text-align: left ; font-size: 15px&quot;&gt;&lt;b&gt;&amp;nbsp; &amp;nbsp; &amp;nbsp; &amp;nbsp;. Metrics evaluation&lt;/b&gt;&lt;/div&gt;&lt;div style=&quot;text-align: left ; font-size: 15px&quot;&gt;&lt;b&gt;&lt;font style=&quot;font-size: 15px&quot;&gt;&amp;nbsp; &amp;nbsp; &amp;nbsp; &amp;nbsp;. Improve this model&lt;/font&gt;&lt;/b&gt;&lt;/div&gt;&lt;div style=&quot;text-align: left ; font-size: 15px&quot;&gt;&lt;b&gt;&lt;font style=&quot;font-size: 15px&quot;&gt;&lt;br&gt;&lt;/font&gt;&lt;/b&gt;&lt;/div&gt;&lt;div style=&quot;text-align: left ; font-size: 15px&quot;&gt;&lt;b&gt;&lt;font style=&quot;font-size: 15px&quot;&gt;- Tunning Model:&lt;/font&gt;&lt;/b&gt;&lt;/div&gt;&lt;div style=&quot;text-align: left ; font-size: 15px&quot;&gt;&lt;b&gt;&lt;font style=&quot;font-size: 15px&quot;&gt;&amp;nbsp; &amp;nbsp; &amp;nbsp; &amp;nbsp;. Train models&lt;/font&gt;&lt;/b&gt;&lt;/div&gt;&lt;div style=&quot;text-align: left ; font-size: 15px&quot;&gt;&lt;b&gt;&lt;font style=&quot;font-size: 15px&quot;&gt;&amp;nbsp; &amp;nbsp; &amp;nbsp; &amp;nbsp;. Best estimator&lt;/font&gt;&lt;/b&gt;&lt;/div&gt;&lt;div style=&quot;text-align: left ; font-size: 15px&quot;&gt;&lt;b&gt;&amp;nbsp; &amp;nbsp; &amp;nbsp; &amp;nbsp;. Metrics evaluation&amp;nbsp;&lt;/b&gt;&lt;/div&gt;&lt;div style=&quot;text-align: left ; font-size: 15px&quot;&gt;&lt;b&gt;&amp;nbsp; &amp;nbsp; &amp;nbsp; &amp;nbsp;. Metrics visualization&lt;/b&gt;&lt;/div&gt;&lt;div style=&quot;text-align: left ; font-size: 15px&quot;&gt;&lt;b&gt;&lt;br&gt;&lt;/b&gt;&lt;/div&gt;&lt;div style=&quot;text-align: left ; font-size: 15px&quot;&gt;&lt;b&gt;- Select Best Model&lt;/b&gt;&lt;/div&gt;&lt;div style=&quot;text-align: left ; font-size: 15px&quot;&gt;&lt;b&gt;&lt;font style=&quot;font-size: 15px&quot;&gt;&lt;br&gt;&lt;/font&gt;&lt;/b&gt;&lt;/div&gt;&lt;div style=&quot;text-align: left ; font-size: 15px&quot;&gt;&lt;br&gt;&lt;/div&gt;&lt;div style=&quot;text-align: left ; font-size: 15px&quot;&gt;&lt;br&gt;&lt;/div&gt;&lt;div style=&quot;text-align: left&quot;&gt;&lt;span&gt;&lt;b&gt;&lt;br&gt;&lt;/b&gt;&lt;/span&gt;&lt;/div&gt;&lt;div style=&quot;text-align: left&quot;&gt;&lt;span&gt;&lt;br&gt;&lt;/span&gt;&lt;/div&gt;" style="rounded=1;whiteSpace=wrap;html=1;fillColor=#ffe6cc;strokeColor=#d79b00;" vertex="1" parent="1">
          <mxGeometry x="420" y="610" width="371" height="320" as="geometry" />
        </mxCell>
        <mxCell id="hRsmKu5wAkDzAuVudHje-19" style="edgeStyle=orthogonalEdgeStyle;rounded=0;orthogonalLoop=1;jettySize=auto;html=1;exitX=0;exitY=0.75;exitDx=0;exitDy=0;entryX=1;entryY=0.75;entryDx=0;entryDy=0;" edge="1" parent="1" source="hRsmKu5wAkDzAuVudHje-14" target="hRsmKu5wAkDzAuVudHje-2">
          <mxGeometry relative="1" as="geometry" />
        </mxCell>
        <mxCell id="hRsmKu5wAkDzAuVudHje-20" style="edgeStyle=orthogonalEdgeStyle;rounded=0;orthogonalLoop=1;jettySize=auto;html=1;entryX=1;entryY=0.5;entryDx=0;entryDy=0;" edge="1" parent="1" source="hRsmKu5wAkDzAuVudHje-14" target="hRsmKu5wAkDzAuVudHje-1">
          <mxGeometry relative="1" as="geometry" />
        </mxCell>
        <mxCell id="hRsmKu5wAkDzAuVudHje-14" value="&lt;font style=&quot;font-size: 20px&quot;&gt;Data Understanding&lt;/font&gt;" style="rounded=1;whiteSpace=wrap;html=1;fillColor=#fff2cc;strokeColor=#d6b656;" vertex="1" parent="1">
          <mxGeometry x="440" y="20" width="178" height="100" as="geometry" />
        </mxCell>
      </root>
    </mxGraphModel>
  </diagram>
</mxfile>
